0
SECTION
2
HEADER
9
$INSUNITS
70
4
9
$ACADVER
1
AC1014
9
$HANDSEED
5
FFFF
0
ENDSEC
0
SECTION
2
TABLES
0
TABLE
2
VPORT
5
8
100
AcDbSymbolTable
0
ENDTAB
0
TABLE
2
LTYPE
5
5
100
AcDbSymbolTable
0
LTYPE
5
14
100
AcDbSymbolTableRecord
100
AcDbLinetypeTableRecord
2
BYBLOCK
70
0
0
LTYPE
5
15
100
AcDbSymbolTableRecord
100
AcDbLinetypeTableRecord
2
BYLAYER
70
0
0
ENDTAB
0
TABLE
2
LAYER
5
2
100
AcDbSymbolTable
70
2
0
LAYER
5
50
100
AcDbSymbolTableRecord
100
AcDbLayerTableRecord
2
0
70
0
6
CONTINUOUS
0
ENDTAB
0
TABLE
2
STYLE
5
3
100
AcDbSymbolTable
70
1
0
STYLE
5
11
100
AcDbSymbolTableRecord
100
AcDbTextStyleTableRecord
2
STANDARD
70
0
0
ENDTAB
0
TABLE
2
VIEW
5
6
100
AcDbSymbolTable
70
0
0
ENDTAB
0
TABLE
2
UCS
5
7
100
AcDbSymbolTable
70
0
0
ENDTAB
0
TABLE
2
APPID
5
9
100
AcDbSymbolTable
70
2
0
APPID
5
12
100
AcDbSymbolTableRecord
100
AcDbRegAppTableRecord
2
ACAD
70
0
0
ENDTAB
0
TABLE
2
DIMSTYLE
5
A
100
AcDbSymbolTable
70
1
0
ENDTAB
0
TABLE
2
BLOCK_RECORD
5
1
100
AcDbSymbolTable
70
1
0
BLOCK_RECORD
5
1F
100
AcDbSymbolTableRecord
100
AcDbBlockTableRecord
2
*MODEL_SPACE
0
BLOCK_RECORD
5
1B
100
AcDbSymbolTableRecord
100
AcDbBlockTableRecord
2
*PAPER_SPACE
0
ENDTAB
0
ENDSEC
0
SECTION
2
BLOCKS
0
BLOCK
5
20
100
AcDbEntity
100
AcDbBlockBegin
2
*MODEL_SPACE
0
ENDBLK
5
21
100
AcDbEntity
100
AcDbBlockEnd
0
BLOCK
5
1C
100
AcDbEntity
100
AcDbBlockBegin
2
*PAPER_SPACE
0
ENDBLK
5
1D
100
AcDbEntity
100
AcDbBlockEnd
0
ENDSEC
0
SECTION
2
ENTITIES
0
LWPOLYLINE
5
100
100
AcDbEntity
8
0
100
AcDbPolyline
90
4
70
1
43
0.0
10
173.05060479073657
20
100.74334370223454
10
94.550604790736642
20
100.74334370223454
10
94.550604790736642
20
152.24334370223457
10
173.05060479073657
20
152.24334370223457
0
LWPOLYLINE
5
101
100
AcDbEntity
8
0
100
AcDbPolyline
90
4
70
1
43
0.0
10
171.1226425143139
20
186.93189310613081
10
167.1226425143139
20
186.93189310613081
42
0.99999999999999989
10
167.1226425143139
20
180.93189310613081
10
171.1226425143139
20
180.93189310613081
42
0.99999999999999989
0
LWPOLYLINE
5
102
100
AcDbEntity
8
0
100
AcDbPolyline
90
4
70
1
43
0.0
10
151.1614478491374
20
65.336440551326234
10
180.1614478491372
20
65.336440551326234
10
180.1614478491372
20
41.656440551326234
10
151.1614478491374
20
41.656440551326234
0
LWPOLYLINE
5
103
100
AcDbEntity
8
0
100
AcDbPolyline
90
4
70
1
43
0.0
10
39.122642514313952
20
186.93189310613081
10
35.122642514313952
20
186.93189310613081
42
0.99999999999999989
10
35.122642514313952
20
180.93189310613081
10
39.122642514313952
20
180.93189310613081
42
0.99999999999999989
0
LWPOLYLINE
5
104
100
AcDbEntity
8
0
100
AcDbPolyline
90
4
70
1
43
0.0
10
203.03273412284966
20
194.77378970223455
10
3.0327341228497646
20
194.77378970223455
10
3.0327341228497673
20
5.7737897022346267
10
203.03273412284966
20
5.7737897022345308
0
LWPOLYLINE
5
105
100
AcDbEntity
8
0
100
AcDbPolyline
90
4
70
1
43
0.0
10
171.1226425143139
20
13.93189310613087
10
167.1226425143139
20
13.931893106130868
42
-0.99999999999999989
10
167.1226425143139
20
19.931893106130872
10
171.1226425143139
20
19.931893106130868
42
-0.99999999999999989
0
LWPOLYLINE
5
106
100
AcDbEntity
8
0
100
AcDbPolyline
90
4
70
1
43
0.0
10
35.122642514313952
20
13.931893106130868
42
-0.99999999999999989
10
35.122642514313952
20
19.931893106130868
10
39.122642514313952
20
19.931893106130868
42
-0.99999999999999989
10
39.122642514313952
20
13.931893106130868
0
CIRCLE
5
107
100
AcDbEntity
8
0
100
AcDbCircle
10
152.85060479073672
20
82.58144752949255
30
0
40
1.5000000000000002
210
0
220
0
230
1
0
CIRCLE
5
108
100
AcDbEntity
8
0
100
AcDbCircle
10
138.03060479073659
20
82.58144752949255
30
0
40
1.5000000000000002
210
0
220
0
230
1
0
CIRCLE
5
109
100
AcDbEntity
8
0
100
AcDbCircle
10
89.480604790736663
20
159.1414475294925
30
0
40
1.5200000000000002
210
0
220
0
230
1
0
CIRCLE
5
110
100
AcDbEntity
8
0
100
AcDbCircle
10
89.480604790736663
20
94.161447529492563
30
0
40
1.5200000000000002
210
0
220
0
230
1
0
CIRCLE
5
111
100
AcDbEntity
8
0
100
AcDbCircle
10
178.12060479073662
20
159.1414475294925
30
0
40
1.5200000000000002
210
0
220
0
230
1
0
CIRCLE
5
112
100
AcDbEntity
8
0
100
AcDbCircle
10
41.379563122849767
20
126.52603270223455
30
0
40
19.5
210
0
220
0
230
1
0
CIRCLE
5
113
100
AcDbEntity
8
0
100
AcDbCircle
10
178.12060479073662
20
94.161447529492563
30
0
40
1.5200000000000002
210
0
220
0
230
1
0
CIRCLE
5
114
100
AcDbEntity
8
0
100
AcDbCircle
10
171.07060479073664
20
82.58144752949255
30
0
40
3.5000000000000004
210
0
220
0
230
1
0
CIRCLE
5
115
100
AcDbEntity
8
0
100
AcDbCircle
10
25.812201184715079
20
72.749984720765909
30
0
40
6.0000000000000009
210
0
220
0
230
1
0
CIRCLE
5
116
100
AcDbEntity
8
0
100
AcDbCircle
10
25.812201184715121
20
57.871614844194625
30
0
40
4
210
0
220
0
230
1
0
CIRCLE
5
117
100
AcDbEntity
8
0
100
AcDbCircle
10
72.812201184715065
20
72.749984720765909
30
0
40
6.0000000000000009
210
0
220
0
230
1
0
CIRCLE
5
118
100
AcDbEntity
8
0
100
AcDbCircle
10
25.812201184715079
20
42.749984720765909
30
0
40
6.0000000000000009
210
0
220
0
230
1
0
CIRCLE
5
119
100
AcDbEntity
8
0
100
AcDbCircle
10
72.812201184715065
20
42.749984720765909
30
0
40
6.0000000000000009
210
0
220
0
230
1
0
CIRCLE
5
120
100
AcDbEntity
8
0
100
AcDbCircle
10
133.31220118471506
20
47.249984720765916
30
0
40
6.0000000000000009
210
0
220
0
230
1
0
LINE
5
121
100
AcDbEntity
8
0
100
AcDbLine
10
41.450627600519915
20
107.02616219394621
30
0
11
3.0327341228497646
21
107.02616219394621
31
0
0
CIRCLE
5
122
100
AcDbEntity
8
0
100
AcDbCircle
10
23.774390616571957
20
108.60052792932998
30
0
40
2.5000000149011603
210
0
220
0
230
1
0
CIRCLE
5
123
100
AcDbEntity
8
0
100
AcDbCircle
10
59.006841544574016
20
108.60052792932996
30
0
40
2.5000000149011647
210
0
220
0
230
1
0
ENDSEC
0
SECTION
2
OBJECTS
0
DICTIONARY
5
C
100
AcDbDictionary
3
ACAD_GROUP
350
D
3
ACAD_MLINESTYLE
350
17
0
DICTIONARY
5
D
100
AcDbDictionary
0
DICTIONARY
5
1A
330
C
100
AcDbDictionary
0
DICTIONARY
5
17
100
AcDbDictionary
0
ENDSEC
0
EOF
